HIERARCHY
ROOT joint_Root
{
	OFFSET 0.0 0.0 0.0
	CHANNELS 6 Xposition Yposition Zposition Zrotation Xrotation Yrotation 
	JOINT Hips
	{
		OFFSET -17.1583 93.1646 452.98
		CHANNELS 6 Xposition Yposition Zposition Zrotation Xrotation Yrotation 
		JOINT Spine
		{
			OFFSET 15.7357 0.0 0.0
			CHANNELS 6 Xposition Yposition Zposition Zrotation Xrotation Yrotation 
			JOINT Chest
			{
				OFFSET 8.98455 -0.406207 0.0
				CHANNELS 6 Xposition Yposition Zposition Zrotation Xrotation Yrotation 
				JOINT Neck
				{
					OFFSET 16.3773 0.0 0.0
					CHANNELS 6 Xposition Yposition Zposition Zrotation Xrotation Yrotation 
					JOINT Head
					{
						OFFSET 6.45672 0.0 0.0
						CHANNELS 6 Xposition Yposition Zposition Zrotation Xrotation Yrotation 
						End Site
						{
							OFFSET 0.0 0.0 0.0
						}
					}
				}
				JOINT Shoulder_L
				{
					OFFSET 12.9942 -0.242716 4.98039
					CHANNELS 6 Xposition Yposition Zposition Zrotation Xrotation Yrotation 
					JOINT UpperArm_L
					{
						OFFSET 5.34809 0.0 0.0
						CHANNELS 6 Xposition Yposition Zposition Zrotation Xrotation Yrotation 
						JOINT LowerArm_L
						{
							OFFSET 24.3286 1.87007e-05 0.0
							CHANNELS 6 Xposition Yposition Zposition Zrotation Xrotation Yrotation 
							JOINT Hand_L
							{
								OFFSET 22.2916 0.0 0.0
								CHANNELS 6 Xposition Yposition Zposition Zrotation Xrotation Yrotation 
								End Site
								{
									OFFSET 0.0 0.0 0.0
								}
							}
						}
					}
				}
				JOINT Shoulder_R
				{
					OFFSET 12.9945 -0.242716 -4.98039
					CHANNELS 6 Xposition Yposition Zposition Zrotation Xrotation Yrotation 
					JOINT UpperArm_R
					{
						OFFSET -5.34813 0.0 0.0
						CHANNELS 6 Xposition Yposition Zposition Zrotation Xrotation Yrotation 
						JOINT LowerArm_R
						{
							OFFSET -24.3289 0.000322201 0.0
							CHANNELS 6 Xposition Yposition Zposition Zrotation Xrotation Yrotation 
							JOINT Hand_R
							{
								OFFSET -22.2915 -0.000108084 0.0
								CHANNELS 6 Xposition Yposition Zposition Zrotation Xrotation Yrotation 
								End Site
								{
									OFFSET 0.0 0.0 0.0
								}
							}
						}
					}
				}
			}
		}
		JOINT UpperLeg_L
		{
			OFFSET -2.19248 -6.46944 0.0
			CHANNELS 6 Xposition Yposition Zposition Zrotation Xrotation Yrotation 
			JOINT LowerLeg_L
			{
				OFFSET 39.0811 0.0 -1.23785e-05
				CHANNELS 6 Xposition Yposition Zposition Zrotation Xrotation Yrotation 
				JOINT Foot_L
				{
					OFFSET 40.9854 0.0 -1.26872e-05
					CHANNELS 6 Xposition Yposition Zposition Zrotation Xrotation Yrotation 
					JOINT Toes_L
					{
						OFFSET 11.7543 0.0 0.0
						CHANNELS 6 Xposition Yposition Zposition Zrotation Xrotation Yrotation 
						End Site
						{
							OFFSET 0.0 0.0 0.0
						}
					}
				}
			}
		}
		JOINT UpperLeg_R
		{
			OFFSET -2.19251 6.46944 0.0
			CHANNELS 6 Xposition Yposition Zposition Zrotation Xrotation Yrotation 
			JOINT LowerLeg_R
			{
				OFFSET -39.0811 -0.00228153 -0.0401928
				CHANNELS 6 Xposition Yposition Zposition Zrotation Xrotation Yrotation 
				JOINT Foot_R
				{
					OFFSET -40.9854 0.0 0.0
					CHANNELS 6 Xposition Yposition Zposition Zrotation Xrotation Yrotation 
					JOINT Toes_R
					{
						OFFSET -11.7543 0.0 0.0
						CHANNELS 6 Xposition Yposition Zposition Zrotation Xrotation Yrotation 
						End Site
						{
							OFFSET 0.0 0.0 0.0
						}
					}
				}
			}
		}
	}
}
MOTION
Frames:	9
Frame Time:	0.0333333
0.000000 0.000000 0.000000 0.000000 0.000000 -0.000000 -1.078270 94.237300 -37.640500 84.569400 4.552150 -19.471500 15.735700 0.000005 -0.000001 34.391900 85.216700 -30.752100 8.984550 -0.406207 -0.000000 -2.098450 -8.205100 7.138180 16.377300 -0.000001 -0.000001 -8.774890 3.816410 -3.568060 6.456720 -0.000001 -0.000000 -0.209714 7.044140 -1.629150 12.994200 -0.242716 4.980390 -90.495300 1.969080 -75.878900 5.348090 -0.000007 -0.000001 -67.274700 3.568200 -7.107180 24.328600 0.000019 0.000005 41.589600 5.213150 -84.154700 22.291600 -0.000001 0.000005 20.677500 4.923960 8.898080 12.994500 -0.242716 -4.980390 90.490700 -1.750330 -74.335500 -5.348130 -0.000001 -0.000004 -54.818500 -17.770200 24.472700 -24.328900 0.000322 -0.000009 0.615487 16.088500 -2.223650 -22.291500 -0.000108 -0.000004 14.685000 4.485760 16.829500 -2.192480 -6.469440 -0.000000 -172.789000 -6.302130 -0.967857 39.081100 -0.000007 -0.000012 0.012750 -0.060294 11.940900 40.985400 -0.000006 -0.000013 -3.684040 15.171900 -42.083200 11.754300 -0.000000 0.000003 -0.047698 -0.289468 -28.492200 -2.192510 6.469440 -0.000001 -171.803000 -4.345590 123.619000 -39.081100 -0.002282 -0.040193 0.002615 0.000342 59.762400 -40.985400 0.000008 0.000006 -2.425510 -16.826200 -56.995200 -11.754300 -0.000006 -0.000006 0.000275 0.162910 -9.966010
0.000000 0.000000 0.000000 0.000000 0.000000 -0.000000 -0.602943 95.496400 -27.122700 86.684500 2.017540 -18.217300 15.735700 0.000005 -0.000001 32.944900 84.965800 -30.091500 8.984550 -0.406207 -0.000000 -2.075690 -8.691880 5.556990 16.377300 -0.000001 -0.000001 -8.343740 4.427740 -3.686400 6.456720 -0.000001 -0.000000 0.226110 7.980030 -2.432410 12.994200 -0.242716 4.980390 -90.682400 2.661770 -75.614800 5.348090 -0.000007 -0.000001 -67.659700 4.438200 -5.873640 24.328600 0.000019 0.000005 43.097000 1.394630 -88.509900 22.291600 -0.000001 0.000005 30.134500 4.883230 9.709720 12.994500 -0.242716 -4.980390 90.469400 -1.643950 -74.062500 -5.348130 -0.000001 -0.000004 -50.414500 -19.329500 26.486300 -24.328900 0.000322 -0.000009 0.397425 16.158000 -1.431510 -22.291500 -0.000108 -0.000004 22.387900 4.281090 20.081600 -2.192480 -6.469440 -0.000000 -175.593000 -9.450520 4.370690 39.081100 -0.000007 -0.000012 0.024344 -0.111688 12.296200 40.985400 -0.000006 -0.000013 -4.634450 11.205600 -31.180200 11.754300 -0.000000 0.000003 0.002417 0.069744 -13.748100 -2.192510 6.469440 -0.000001 -176.103000 -6.087950 130.400000 -39.081100 -0.002282 -0.040193 0.014839 -0.014216 39.113100 -40.985400 0.000008 0.000006 -4.652680 -11.097700 -62.901900 -11.754300 -0.000006 -0.000006 -0.000290 0.172414 -9.580040
0.000000 0.000000 0.000000 0.000000 0.000000 -0.000000 -0.094027 95.078200 -16.391100 88.869100 1.245110 -16.484400 15.735700 0.000005 -0.000001 31.296100 84.569100 -29.214500 8.984550 -0.406207 -0.000000 -1.957120 -9.455470 4.007900 16.377300 -0.000001 -0.000001 -7.795280 4.491280 -3.914660 6.456720 -0.000001 -0.000000 0.887504 7.937250 -3.239900 12.994200 -0.242716 4.980390 -90.656000 2.584080 -75.751500 5.348090 -0.000007 -0.000001 -68.665500 4.626240 -3.449190 24.328600 0.000019 0.000005 45.478200 0.791041 -89.222100 22.291600 -0.000001 0.000005 34.468400 4.851300 10.335700 12.994500 -0.242716 -4.980390 90.349800 -1.252070 -74.391200 -5.348130 -0.000001 -0.000004 -47.948100 -20.036200 27.401900 -24.328900 0.000322 -0.000009 0.258110 14.954500 -1.004090 -22.291500 -0.000108 -0.000004 30.077200 4.293060 19.899700 -2.192480 -6.469440 -0.000000 -178.290000 -9.436300 5.267910 39.081100 -0.000007 -0.000012 0.056168 -0.119258 25.219300 40.985400 -0.000006 -0.000013 -2.497900 4.790950 -35.254500 11.754300 -0.000000 0.000003 0.002143 0.052610 -14.442800 -2.192510 6.469440 -0.000001 -179.130000 -5.216320 137.837000 -39.081100 -0.002282 -0.040193 0.010155 -0.017099 21.792000 -40.985400 0.000008 0.000006 -9.843010 -5.151650 -69.022900 -11.754300 -0.000006 -0.000006 -0.000014 0.167907 -9.763100
0.000000 0.000000 0.000000 0.000000 0.000000 -0.000000 0.227371 93.762800 -5.515980 90.016700 0.420628 -14.490600 15.735700 0.000005 -0.000001 36.669500 84.547400 -34.886600 8.984550 -0.406207 -0.000000 -1.113720 -8.883230 3.483310 16.377300 -0.000001 -0.000001 -8.040550 4.353180 -4.625690 6.456720 -0.000001 -0.000000 1.220780 6.873060 -4.548780 12.994200 -0.242716 4.980390 -90.717600 2.816160 -75.699100 5.348090 -0.000007 -0.000001 -70.350900 5.128650 -1.213960 24.328600 0.000019 0.000005 43.402400 3.882350 -85.904900 22.291600 -0.000001 0.000005 33.377300 4.850660 10.347900 12.994500 -0.242716 -4.980390 90.252700 -0.934133 -74.859300 -5.348130 -0.000001 -0.000004 -47.487100 -21.259100 26.342300 -24.328900 0.000322 -0.000009 0.212269 12.946500 -0.951935 -22.291500 -0.000108 -0.000004 34.553300 4.369900 18.700900 -2.192480 -6.469440 -0.000000 179.320000 -6.890860 5.449880 39.081100 -0.000007 -0.000012 0.116983 -0.152161 37.553200 40.985400 -0.000006 -0.000013 -6.269820 0.320020 -32.133800 11.754300 -0.000000 0.000003 0.002294 0.060442 -14.125200 -2.192510 6.469440 -0.000001 178.869000 -6.087490 143.056000 -39.081100 -0.002282 -0.040193 0.004888 -0.006096 14.325100 -40.985400 0.000008 0.000006 -12.294100 -5.684710 -74.288200 -11.754300 -0.000006 -0.000006 0.000125 0.165539 -9.859250
0.000000 0.000000 0.000000 0.000000 0.000000 -0.000000 0.240354 91.496700 5.132170 89.440800 -1.447220 -13.094900 15.735700 0.000005 -0.000001 48.777400 85.097000 -46.775100 8.984550 -0.406207 -0.000000 -0.268826 -6.600850 3.990240 16.377300 -0.000001 -0.000001 -8.253350 4.208750 -5.110000 6.456720 -0.000001 -0.000000 0.959035 5.570470 -5.689340 12.994200 -0.242716 4.980390 -91.103700 4.115220 -74.972100 5.348090 -0.000007 -0.000001 -70.641300 6.292860 0.910801 24.328600 0.000019 0.000005 39.028400 8.654620 -79.483500 22.291600 -0.000001 0.000005 26.846000 4.904770 9.281960 12.994500 -0.242716 -4.980390 90.072700 -0.272048 -75.028100 -5.348130 -0.000001 -0.000004 -48.795300 -21.079200 22.469700 -24.328900 0.000322 -0.000009 0.149150 10.265400 -0.842621 -22.291500 -0.000108 -0.000004 34.042500 4.410790 18.050700 -2.192480 -6.469440 -0.000000 179.000000 -7.566610 2.840960 39.081100 -0.000007 -0.000012 0.224217 -0.180239 51.205100 40.985400 -0.000006 -0.000013 -7.581460 3.495020 -28.136500 11.754300 -0.000000 0.000003 0.002246 0.057683 -14.237100 -2.192510 6.469440 -0.000001 -178.645000 -4.369630 144.483000 -39.081100 -0.002282 -0.040193 -0.001390 0.014311 18.233000 -40.985400 0.000008 0.000006 -12.611400 -6.701010 -76.568400 -11.754300 -0.000006 -0.000006 0.001924 0.123772 -11.554100
0.000000 0.000000 0.000000 0.000000 0.000000 -0.000000 -0.184185 88.521100 14.846400 86.823900 -2.577310 -14.055200 15.735700 0.000005 -0.000001 62.599300 86.113500 -59.723500 8.984550 -0.406207 -0.000000 -0.763171 -3.790380 5.725550 16.377300 -0.000001 -0.000001 -8.174900 3.839430 -5.213790 6.456720 -0.000001 -0.000000 0.493784 4.152370 -5.848510 12.994200 -0.242716 4.980390 -91.882300 6.441710 -73.673200 5.348090 -0.000007 -0.000001 -69.119200 7.165930 2.560930 24.328600 0.000019 0.000005 38.021300 15.989700 -70.592200 22.291600 -0.000001 0.000005 18.412900 4.975720 7.831430 12.994500 -0.242716 -4.980390 89.660900 1.264440 -74.985500 -5.348130 -0.000001 -0.000004 -50.791100 -18.555000 16.479800 -24.328900 0.000322 -0.000009 0.117602 7.073060 -0.963402 -22.291500 -0.000108 -0.000004 28.854700 4.509050 16.450100 -2.192480 -6.469440 -0.000000 -177.841000 -10.004000 -5.672110 39.081100 -0.000007 -0.000012 0.434404 -0.170918 68.522400 40.985400 -0.000006 -0.000013 -8.585860 4.758710 -29.045000 11.754300 -0.000000 0.000003 0.002228 0.056761 -14.274500 -2.192510 6.469440 -0.000001 -172.212000 -1.774420 137.269000 -39.081100 -0.002282 -0.040193 0.236615 -0.311422 36.842200 -40.985400 0.000008 0.000006 1.828460 -7.450550 -67.287700 -11.754300 -0.000006 -0.000006 -0.002286 0.199910 -8.462440
0.000000 0.000000 0.000000 0.000000 0.000000 -0.000000 -0.536383 85.541700 24.607500 85.450900 -2.775690 -11.817300 15.735700 0.000005 -0.000001 79.452900 85.400800 -76.252500 8.984550 -0.406207 -0.000000 1.337800 -1.862230 6.417570 16.377300 -0.000001 -0.000001 -8.532110 3.757500 -5.065740 6.456720 -0.000001 -0.000000 -0.388215 3.006270 -5.178790 12.994200 -0.242716 4.980390 -92.732000 8.791930 -72.661500 5.348090 -0.000007 -0.000001 -66.830500 4.861160 3.019950 24.328600 0.000019 0.000005 36.602500 27.307900 -58.297100 22.291600 -0.000001 0.000005 8.643900 4.919920 8.979200 12.994500 -0.242716 -4.980390 89.154200 3.215860 -75.255400 -5.348130 -0.000001 -0.000004 -53.525600 -15.518500 8.417230 -24.328900 0.000322 -0.000009 0.229874 4.283890 -3.088690 -22.291500 -0.000108 -0.000004 18.890600 4.714270 12.897800 -2.192480 -6.469440 -0.000000 -175.193000 -10.258100 -13.007500 39.081100 -0.000007 -0.000012 0.711971 -0.065865 84.714200 40.985400 -0.000006 -0.000013 -11.343300 -0.051849 -31.159900 11.754300 -0.000000 0.000003 0.002199 0.055250 -14.335700 -2.192510 6.469440 -0.000001 -170.686000 0.492399 138.690000 -39.081100 -0.002282 -0.040193 -0.023391 0.021062 51.661200 -40.985400 0.000008 0.000006 -1.758050 -4.030790 -77.883100 -11.754300 -0.000006 -0.000006 -0.006295 0.241163 -6.782150
0.000000 0.000000 0.000000 0.000000 0.000000 -0.000000 -1.058640 83.843400 33.760700 83.951500 -2.649420 -11.031000 15.735700 0.000005 -0.000001 89.548500 84.681200 -85.937200 8.984550 -0.406207 -0.000000 2.889040 -0.237107 7.221170 16.377300 -0.000001 -0.000001 -9.240300 3.977980 -4.720200 6.456720 -0.000001 -0.000000 -0.979976 2.139520 -5.145300 12.994200 -0.242716 4.980390 -93.376800 10.076700 -71.364500 5.348090 -0.000007 -0.000001 -64.407200 2.347540 2.361470 24.328600 0.000019 0.000005 21.141700 33.893300 -34.738600 22.291600 -0.000001 0.000005 2.240350 4.824040 10.861200 12.994500 -0.242716 -4.980390 88.964400 4.149500 -75.973300 -5.348130 -0.000001 -0.000004 -56.900200 -9.608710 0.507952 -24.328900 0.000322 -0.000009 0.347704 1.761100 -11.206300 -22.291500 -0.000108 -0.000004 5.981420 5.000870 7.293350 -2.192480 -6.469440 -0.000000 -173.611000 -9.446410 -24.622900 39.081100 -0.000007 -0.000012 0.595492 0.077713 97.434000 40.985400 -0.000006 -0.000013 -7.815570 -0.824943 -33.250300 11.754300 -0.000000 0.000003 0.002225 0.056603 -14.280900 -2.192510 6.469440 -0.000001 -169.295000 0.963264 144.121000 -39.081100 -0.002282 -0.040193 -0.010098 0.008723 56.772700 -40.985400 0.000008 0.000006 -2.711020 -3.168460 -86.102800 -11.754300 -0.000006 -0.000006 -0.003699 0.215942 -7.810000
0.000000 0.000000 0.000000 0.000000 0.000000 -0.000000 -1.159420 83.974900 43.105900 84.712700 -2.401580 -10.632000 15.735700 0.000005 -0.000001 96.106100 84.634400 -92.957400 8.984550 -0.406207 -0.000000 2.884810 1.006470 6.265540 16.377300 -0.000001 -0.000001 -8.776760 3.388200 -3.680480 6.456720 -0.000001 -0.000000 0.103623 1.814940 -4.800900 12.994200 -0.242716 4.980390 -93.403800 9.776560 -70.696500 5.348090 -0.000007 -0.000001 -61.474300 -4.078200 5.916190 24.328600 0.000019 0.000005 9.134400 36.050200 -15.281700 22.291600 -0.000001 0.000005 -4.102650 4.828500 10.775300 12.994500 -0.242716 -4.980390 88.920800 4.390640 -76.175900 -5.348130 -0.000001 -0.000004 -57.970300 -0.229773 -3.560380 -24.328900 0.000322 -0.000009 0.180525 0.358307 -26.878400 -22.291500 -0.000108 -0.000004 1.668870 5.249870 1.436740 -2.192480 -6.469440 -0.000000 -174.925000 -7.347970 -35.349300 39.081100 -0.000007 -0.000012 0.333516 0.072880 102.325000 40.985400 -0.000006 -0.000013 -4.838390 -0.023894 -38.960500 11.754300 -0.000000 0.000003 0.002132 0.052138 -14.461900 -2.192510 6.469440 -0.000001 -170.806000 2.078830 152.924000 -39.081100 -0.002282 -0.040193 -0.003754 0.005017 54.306100 -40.985400 0.000008 0.000006 -3.818490 -1.534150 -90.009600 -11.754300 -0.000006 -0.000006 -0.000631 0.177691 -9.365690
